<svg width="42" height="42" viewBox="0 0 42 42" fill="none" xmlns="http://www.w3.org/2000/svg">
<path d="M20.9985 39.3721C33.25 39.3721 39.3721 31.146 39.3721 20.9985C39.3721 10.8511 33.25 2.625 20.9985 2.625C8.74707 2.625 2.625 10.8511 2.625 20.9985C2.625 31.146 8.74707 39.3721 20.9985 39.3721Z" fill="url(#paint0_radial_308_47617)"/>
<path d="M20.9985 39.3721C33.25 39.3721 39.3721 31.146 39.3721 20.9985C39.3721 10.8511 33.25 2.625 20.9985 2.625C8.74707 2.625 2.625 10.8511 2.625 20.9985C2.625 31.146 8.74707 39.3721 20.9985 39.3721Z" fill="url(#paint1_radial_308_47617)"/>
<path d="M20.9985 39.3721C33.25 39.3721 39.3721 31.146 39.3721 20.9985C39.3721 10.8511 33.25 2.625 20.9985 2.625C8.74707 2.625 2.625 10.8511 2.625 20.9985C2.625 31.146 8.74707 39.3721 20.9985 39.3721Z" fill="url(#paint2_radial_308_47617)" fill-opacity="0.6"/>
<path d="M20.9985 39.3721C33.25 39.3721 39.3721 31.146 39.3721 20.9985C39.3721 10.8511 33.25 2.625 20.9985 2.625C8.74707 2.625 2.625 10.8511 2.625 20.9985C2.625 31.146 8.74707 39.3721 20.9985 39.3721Z" fill="url(#paint3_radial_308_47617)"/>
<path d="M20.9985 39.3721C33.25 39.3721 39.3721 31.146 39.3721 20.9985C39.3721 10.8511 33.25 2.625 20.9985 2.625C8.74707 2.625 2.625 10.8511 2.625 20.9985C2.625 31.146 8.74707 39.3721 20.9985 39.3721Z" fill="url(#paint4_radial_308_47617)"/>
<path d="M20.9985 39.3721C33.25 39.3721 39.3721 31.146 39.3721 20.9985C39.3721 10.8511 33.25 2.625 20.9985 2.625C8.74707 2.625 2.625 10.8511 2.625 20.9985C2.625 31.146 8.74707 39.3721 20.9985 39.3721Z" fill="url(#paint5_radial_308_47617)"/>
<path d="M20.9985 39.3721C33.25 39.3721 39.3721 31.146 39.3721 20.9985C39.3721 10.8511 33.25 2.625 20.9985 2.625C8.74707 2.625 2.625 10.8511 2.625 20.9985C2.625 31.146 8.74707 39.3721 20.9985 39.3721Z" fill="url(#paint6_radial_308_47617)"/>
<path d="M20.9985 39.3721C33.25 39.3721 39.3721 31.146 39.3721 20.9985C39.3721 10.8511 33.25 2.625 20.9985 2.625C8.74707 2.625 2.625 10.8511 2.625 20.9985C2.625 31.146 8.74707 39.3721 20.9985 39.3721Z" fill="url(#paint7_radial_308_47617)"/>
<path d="M20.9985 39.3721C33.25 39.3721 39.3721 31.146 39.3721 20.9985C39.3721 10.8511 33.25 2.625 20.9985 2.625C8.74707 2.625 2.625 10.8511 2.625 20.9985C2.625 31.146 8.74707 39.3721 20.9985 39.3721Z" fill="url(#paint8_radial_308_47617)"/>
<path d="M20.9985 39.3721C33.25 39.3721 39.3721 31.146 39.3721 20.9985C39.3721 10.8511 33.25 2.625 20.9985 2.625C8.74707 2.625 2.625 10.8511 2.625 20.9985C2.625 31.146 8.74707 39.3721 20.9985 39.3721Z" fill="url(#paint9_radial_308_47617)"/>
<path d="M20.9985 39.3721C33.25 39.3721 39.3721 31.146 39.3721 20.9985C39.3721 10.8511 33.25 2.625 20.9985 2.625C8.74707 2.625 2.625 10.8511 2.625 20.9985C2.625 31.146 8.74707 39.3721 20.9985 39.3721Z" fill="url(#paint10_radial_308_47617)"/>
<path fill-rule="evenodd" clip-rule="evenodd" d="M13.7812 18.7031C16.862 18.7031 19.3594 16.2057 19.3594 13.125C19.3594 10.0443 16.862 7.54688 13.7812 7.54688C10.7005 7.54688 8.20312 10.0443 8.20312 13.125C8.20312 16.2057 10.7005 18.7031 13.7812 18.7031ZM28.2188 18.7031C31.2995 18.7031 33.7969 16.2057 33.7969 13.125C33.7969 10.0443 31.2995 7.54688 28.2188 7.54688C25.138 7.54688 22.6406 10.0443 22.6406 13.125C22.6406 16.2057 25.138 18.7031 28.2188 18.7031Z" fill="white"/>
<path fill-rule="evenodd" clip-rule="evenodd" d="M17.3906 13.125C17.3906 14.756 16.0685 16.0781 14.4375 16.0781C12.8065 16.0781 11.4844 14.756 11.4844 13.125C11.4844 11.494 12.8065 10.1719 14.4375 10.1719C16.0685 10.1719 17.3906 11.494 17.3906 13.125ZM30.5156 13.125C30.5156 14.756 29.1935 16.0781 27.5625 16.0781C25.9315 16.0781 24.6094 14.756 24.6094 13.125C24.6094 11.494 25.9315 10.1719 27.5625 10.1719C29.1935 10.1719 30.5156 11.494 30.5156 13.125Z" fill="url(#paint11_linear_308_47617)"/>
<path d="M21 32.8125C9.1875 32.8125 9.1875 21 9.1875 21H32.8125C32.8125 21 32.8125 32.8125 21 32.8125Z" fill="url(#paint12_radial_308_47617)"/>
<path d="M10.5 21.9688V21H31.5V21.9687C31.5 22.521 31.0523 22.9688 30.5 22.9688H11.5C10.9477 22.9688 10.5 22.521 10.5 21.9688Z" fill="url(#paint13_linear_308_47617)"/>
<defs>
<radialGradient id="paint0_radial_308_47617" cx="0" cy="0" r="1" gradientUnits="userSpaceOnUse" gradientTransform="translate(33.4688 11.8125) rotate(131.878) scale(51.1201)">
<stop stop-color="#FFF478"/>
<stop offset="0.474827" stop-color="#FFB02E"/>
<stop offset="1" stop-color="#F70A8D"/>
</radialGradient>
<radialGradient id="paint1_radial_308_47617" cx="0" cy="0" r="1" gradientUnits="userSpaceOnUse" gradientTransform="translate(21 16.4063) rotate(101.31) scale(23.4236 30.0012)">
<stop offset="0.787821" stop-color="#F59639" stop-opacity="0"/>
<stop offset="0.972509" stop-color="#FF7DCE"/>
</radialGradient>
<radialGradient id="paint2_radial_308_47617" cx="0" cy="0" r="1" gradientUnits="userSpaceOnUse" gradientTransform="translate(23.625 18.375) rotate(135) scale(53.8285)">
<stop offset="0.314853" stop-opacity="0"/>
<stop offset="1"/>
</radialGradient>
<radialGradient id="paint3_radial_308_47617" cx="0" cy="0" r="1" gradientUnits="userSpaceOnUse" gradientTransform="translate(21 22.3125) rotate(77.692) scale(36.9429)">
<stop offset="0.507903" stop-color="#7D6133" stop-opacity="0"/>
<stop offset="1" stop-color="#715B32"/>
</radialGradient>
<radialGradient id="paint4_radial_308_47617" cx="0" cy="0" r="1" gradientUnits="userSpaceOnUse" gradientTransform="translate(21.6563 21.6563) rotate(55.7131) scale(17.474 12.666)">
<stop stop-color="#FFB849"/>
<stop offset="1" stop-color="#FFB847" stop-opacity="0"/>
</radialGradient>
<radialGradient id="paint5_radial_308_47617" cx="0" cy="0" r="1" gradientUnits="userSpaceOnUse" gradientTransform="translate(26.9063 23.625) rotate(9.86581) scale(15.3203)">
<stop stop-color="#FFA64B"/>
<stop offset="0.900412" stop-color="#FFAE46" stop-opacity="0"/>
</radialGradient>
<radialGradient id="paint6_radial_308_47617" cx="0" cy="0" r="1" gradientUnits="userSpaceOnUse" gradientTransform="translate(22.9687 19.6875) rotate(43.9708) scale(77.507)">
<stop offset="0.185425" stop-opacity="0"/>
<stop offset="1" stop-opacity="0.4"/>
</radialGradient>
<radialGradient id="paint7_radial_308_47617" cx="0" cy="0" r="1" gradientUnits="userSpaceOnUse" gradientTransform="translate(11.1563 13.7813) rotate(83.6598) scale(5.9426 4.80951)">
<stop offset="0.47452" stop-color="#B3671F"/>
<stop offset="0.781916" stop-color="#B3671F" stop-opacity="0.236695"/>
<stop offset="0.873485" stop-color="#B3671F" stop-opacity="0.0865443"/>
<stop offset="0.948588" stop-color="#B3671F" stop-opacity="0"/>
</radialGradient>
<radialGradient id="paint8_radial_308_47617" cx="0" cy="0" r="1" gradientUnits="userSpaceOnUse" gradientTransform="translate(25.5938 12.4688) rotate(102.529) scale(6.05033 4.6621)">
<stop offset="0.308886" stop-color="#D57B2A"/>
<stop offset="0.773417" stop-color="#E28B30" stop-opacity="0.15"/>
<stop offset="0.936131" stop-color="#E28B30" stop-opacity="0"/>
</radialGradient>
<radialGradient id="paint9_radial_308_47617" cx="0" cy="0" r="1" gradientUnits="userSpaceOnUse" gradientTransform="translate(13.919 13.9714) rotate(84.716) scale(5.34349)">
<stop offset="0.359039" stop-color="#C84E28"/>
<stop offset="1" stop-color="#C84528" stop-opacity="0"/>
</radialGradient>
<radialGradient id="paint10_radial_308_47617" cx="0" cy="0" r="1" gradientUnits="userSpaceOnUse" gradientTransform="translate(28.0063 13.8043) rotate(104.846) scale(5.64552)">
<stop offset="0.359039" stop-color="#C84E28"/>
<stop offset="1" stop-color="#C84528" stop-opacity="0"/>
</radialGradient>
<linearGradient id="paint11_linear_308_47617" x1="21.6562" y1="10.5" x2="21.6562" y2="15.75" gradientUnits="userSpaceOnUse">
<stop stop-color="#553B3E"/>
<stop offset="1" stop-color="#3D2432"/>
</linearGradient>
<radialGradient id="paint12_radial_308_47617" cx="0" cy="0" r="1" gradientUnits="userSpaceOnUse" gradientTransform="translate(21 35.4375) rotate(-90) scale(14.4375 28.875)">
<stop stop-color="#F70A8D"/>
<stop offset="1" stop-color="#89029C"/>
</radialGradient>
<linearGradient id="paint13_linear_308_47617" x1="21" y1="21" x2="21" y2="22.9688" gradientUnits="userSpaceOnUse">
<stop stop-color="#ECCDFF"/>
<stop offset="1" stop-color="white"/>
</linearGradient>
</defs>
</svg>
